<svg version="1.1" id="Layer_1" xmlns="http://www.w3.org/2000/svg" xmlns:xlink="http://www.w3.org/1999/xlink" x="0px" y="0px"
        width="100px" height="100px" viewBox="0 0 100 100" enable-background="new 0 0 100 100"
        xml:space="preserve" class="logo">
	<circle cx="50" cy="50" r="40" stroke="black" stroke-width="4" fill="none" />
	<path d="M 50 10 q 40 40 0 80" stroke="black" stroke-width="4" fill="none" />
	<path d="M 50 10 q -40 40 0 80" stroke="black" stroke-width="4" fill="none" />
	<path d="M 10 50 L 90 50" stroke="black" stroke-width="4" fill="none" />
	<path d="M 15 30 L 85 30" stroke="black" stroke-width="4" fill="none" />
	<path d="M 15 70 L 85 70" stroke="black" stroke-width="4" fill="none" />
	<path d="M 45 72.5 L 45 27.5 L 30 27.5 L 30 17.5 L 70 17.5 L 70 27.5 L 55 27.5 L 55 72.5 L 45 72.5" stroke="black" stroke-width="2" fill="white" />
	<path d="M 30 82.5 L 30 32.5 L 40 32.5 L 50 47.5 L 60 32.5 L 70 32.5 L 70 82.5 L 60 82.5 L 60 52.5 L 50 67.5 L 40 52.5 L 40 82.5 L 30 82.5" stroke="black" stroke-width="2" fill="white" />
</svg>