<?xml version="1.0" encoding="utf-8"?>
<!-- Generator: Adobe Illustrator 15.0.2, SVG Export Plug-In . SVG Version: 6.00 Build 0)  -->
<!DOCTYPE svg PUBLIC "-//W3C//DTD SVG 1.1//EN" "http://www.w3.org/Graphics/SVG/1.1/DTD/svg11.dtd">
<svg version="1.1" id="Layer_1" xmlns="http://www.w3.org/2000/svg" xmlns:xlink="http://www.w3.org/1999/xlink" x="0px" y="0px"
	 width="512px" height="455.111px" viewBox="0 0 512 455.111" enable-background="new 0 0 512 455.111" xml:space="preserve">
<path d="M452.833,28.729C447,11.944,431.083,0,412.444,0H99.556C80.924,0,64.993,11.944,59.167,28.729L0,199.111v227.556
	c0,15.639,12.799,28.444,28.444,28.444h28.444c15.785,0,28.444-12.806,28.444-28.444v-28.444h341.334v28.444
	c0,15.639,12.806,28.444,28.444,28.444h28.444c15.777,0,28.444-12.806,28.444-28.444V199.111L452.833,28.729z M99.556,312.889
	c-23.611,0-42.667-19.056-42.667-42.666c0-23.611,19.056-42.667,42.667-42.667s42.667,19.056,42.667,42.667
	C142.223,293.833,123.167,312.889,99.556,312.889z M412.444,312.889c-23.611,0-42.667-19.056-42.667-42.666
	c0-23.611,19.056-42.667,42.667-42.667s42.667,19.056,42.667,42.667C455.111,293.833,436.056,312.889,412.444,312.889z
	 M56.889,170.667l42.667-128h312.889l42.667,128H56.889z"/>
</svg>
