<?xml version="1.0" encoding="utf-8"?>
<!-- Generator: Adobe Illustrator 15.0.2, SVG Export Plug-In . SVG Version: 6.00 Build 0)  -->
<!DOCTYPE svg PUBLIC "-//W3C//DTD SVG 1.1//EN" "http://www.w3.org/Graphics/SVG/1.1/DTD/svg11.dtd">
<svg version="1.1" id="Layer_1" xmlns="http://www.w3.org/2000/svg" xmlns:xlink="http://www.w3.org/1999/xlink" x="0px" y="0px"
	 width="512px" height="608px" viewBox="0 0 512 608" enable-background="new 0 0 512 608" xml:space="preserve">
<path d="M256,0C114.562,0,0,16,0,128v304c0,61.922,50.242,112,112,112l-48,48v16h384v-16l-48-48c61.922,0,112-50.078,112-112V128
	C512,16,397.438,0,256,0z M112,480c-26.562,0-48-21.438-48-48s21.438-48,48-48s48,21.438,48,48S138.562,480,112,480z M224,288H64
	V128h160V288z M400,480c-26.562,0-48-21.438-48-48s21.438-48,48-48s48,21.438,48,48S426.562,480,400,480z M448,288H288V128h160V288z
	"/>
</svg>
